<svg width="17" height="14" viewBox="0 0 17 14" fill="none" xmlns="http://www.w3.org/2000/svg">
<path d="M4.36444 10.8468C2.98069 9.86425 1.88569 8.58625 1.26694 7.77925C1.09392 7.55648 1 7.28244 1 7.00038C1 6.71831 1.09392 6.44427 1.26694 6.2215C2.38669 4.75975 5.07319 1.75 8.20969 1.75C9.61669 1.75 10.9322 2.35525 12.0572 3.1555" stroke="#AAAAAA" stroke-width="2" stroke-linecap="round" stroke-linejoin="round"/>
<path d="M6.70996 12.028C7.19686 12.1729 7.70195 12.2477 8.20996 12.25C11.3465 12.25 14.033 9.24025 15.1527 7.7785C15.3257 7.55553 15.4195 7.28132 15.4194 6.99912C15.4192 6.71692 15.3252 6.4428 15.152 6.22C14.7584 5.70662 14.3363 5.21584 13.8875 4.75M9.80746 5.41525C9.59918 5.2035 9.35104 5.03508 9.07734 4.91971C8.80365 4.80435 8.50982 4.74431 8.21281 4.74306C7.9158 4.74182 7.62147 4.79939 7.34682 4.91246C7.07217 5.02554 6.82263 5.19187 6.61258 5.40187C6.40253 5.61186 6.23614 5.86137 6.12301 6.13599C6.00987 6.41062 5.95223 6.70493 5.9534 7.00194C5.95457 7.29895 6.01454 7.59279 6.12985 7.86652C6.24515 8.14024 6.41351 8.38842 6.62521 8.59675L9.80746 5.41525ZM2.20996 13L14.21 1L2.20996 13Z" stroke="#AAAAAA" stroke-width="2" stroke-linecap="round" stroke-linejoin="round"/>
</svg>
