<svg width="12" height="16" viewBox="0 0 12 16" fill="none" xmlns="http://www.w3.org/2000/svg">
<path d="M9.33333 7.83317H2.66667M9.33333 7.83317H10.5C10.6326 7.83317 10.7598 7.88585 10.8536 7.97962C10.9473 8.07338 11 8.20056 11 8.33317V13.9998C11 14.1324 10.9473 14.2596 10.8536 14.3534C10.7598 14.4472 10.6326 14.4998 10.5 14.4998H1.5C1.36739 14.4998 1.24021 14.4472 1.14645 14.3534C1.05268 14.2596 1 14.1324 1 13.9998V8.33317C1 8.20056 1.05268 8.07338 1.14645 7.97962C1.24021 7.88585 1.36739 7.83317 1.5 7.83317H2.66667H9.33333ZM9.33333 7.83317V4.49984C9.33333 3.389 8.66667 1.1665 6 1.1665C3.33333 1.1665 2.66667 3.389 2.66667 4.49984V7.83317H9.33333Z" stroke="#252B5C" stroke-width="1.6" stroke-linecap="round" stroke-linejoin="round"/>
</svg>
